<svg width="643" height="75" viewBox="0 0 643 75" fill="none" xmlns="http://www.w3.org/2000/svg">
<path d="M0.6875 1.27273V74H20.0057V31.6705H20.5739L36.767 73.4318H48.4148L64.608 31.9545H65.1761V74H84.4943V1.27273H59.9205L43.017 42.4659H42.1648L25.2614 1.27273H0.6875ZM214.306 37.6364C214.306 13.3466 198.681 0.278406 178.937 0.278406C159.05 0.278406 143.567 13.3466 143.567 37.6364C143.567 61.7841 159.05 74.9943 178.937 74.9943C198.681 74.9943 214.306 61.9261 214.306 37.6364ZM193.994 37.6364C193.994 50.7045 188.738 57.8068 178.937 57.8068C169.136 57.8068 163.88 50.7045 163.88 37.6364C163.88 24.5682 169.136 17.4659 178.937 17.4659C188.738 17.4659 193.994 24.5682 193.994 37.6364ZM343.896 37.6364C343.896 13.3466 328.271 0.278406 308.527 0.278406C288.64 0.278406 273.157 13.3466 273.157 37.6364C273.157 61.7841 288.64 74.9943 308.527 74.9943C328.271 74.9943 343.896 61.9261 343.896 37.6364ZM323.583 37.6364C323.583 50.7045 318.328 57.8068 308.527 57.8068C298.725 57.8068 293.47 50.7045 293.47 37.6364C293.47 24.5682 298.725 17.4659 308.527 17.4659C318.328 17.4659 323.583 24.5682 323.583 37.6364ZM403.031 74H422.776V45.5909H451.043V29.6818H422.776V17.1818H454.168V1.27273H403.031V74ZM531.174 1.27273H511.43V74H531.174V1.27273ZM590.531 74H642.804V58.0909H610.276V45.5909H640.247V29.6818H610.276V17.1818H642.946V1.27273H590.531V74Z" fill="white"/>
</svg>
